<svg width="1385" height="544" viewBox="0 0 1385 544" fill="none" xmlns="http://www.w3.org/2000/svg">
<g filter="url(#filter0_d_304_2000)">
<path d="M687.84 33.2891C692.297 37.9828 691.12 39.8949 697.788 39.595C698.999 41.4127 698.917 67.5647 698.809 71.7785C707.215 73.0905 719.009 72.2454 728.139 73.6108C738.013 75.0872 745.479 77.3877 754.852 79.6199C781.504 85.9652 804.429 95.0765 826.117 112.077C832.163 115.622 838.344 123.719 843.801 127.185C854.358 133.885 859.119 140.727 867.058 150.4C887.624 175.457 902.103 204.501 910.177 235.868C912.849 246.241 914.451 261.003 916.101 271.822C920.112 275.78 949.171 274.054 956.752 274.067L1024.87 274.504L1236.7 275.961C1266 276.245 1296.31 275.695 1325.54 276.66L1326.09 278.04L1161.49 280.842C1138.13 281.251 1113.57 282.167 1090.29 281.991L989.206 280.363C973.233 280.003 955.738 278.91 939.757 279.701C934.381 279.967 934.097 285.476 931.115 288.039L929.032 287.711L928.653 288.594C929.552 289.542 929.593 289.569 929.877 290.818C929.16 292.377 928.802 293.703 927.375 294.522C926.462 292.695 927.131 285.186 927.253 282.675L915.872 282.905C916.149 291.035 911.631 300.026 911.78 305.533C912.308 324.794 904.686 341.004 899.35 359.172C898.187 362.218 894.887 365.965 893.805 368.88C887.718 385.313 876.668 401.702 864.969 414.771C832.041 451.57 788.855 476.002 740.319 485.194C726.049 487.896 714.627 490.441 699.797 490.885C699.858 495.57 701.393 512.644 698.316 514.81C698.12 512.686 698.282 513.191 699.594 510.999C698.282 510.203 697.464 509.968 696.043 509.479C692.615 505.986 692.54 494.814 692.25 489.765C665.745 488.861 649.727 487.978 624.031 479.037C571.342 460.701 523.965 424.805 498.861 374.157C490.059 356.399 484.415 339.901 479.867 320.68C478.662 315.588 478.26 309.452 477.083 304.006C476 298.992 472.836 289.432 474.395 285.04C476.112 283.619 479.367 283.429 481.686 283.076L457.864 281.085C463.098 288.148 466.542 321.659 469.392 333.012C476.504 361.342 488.124 383.106 504.197 407.297C507.696 412.562 508.647 416.66 513.116 421.55C519.475 428.509 527.287 428.583 534.088 434.569C537.805 437.842 533.922 443.551 534.123 448.114L536.081 449.086L536.093 449.892C531.117 450.763 519.929 452.4 515.693 454.113C509.155 456.758 504.762 459.444 497.634 461.875C506.6 452.012 513.362 430.763 506.099 418.503C497.185 403.458 487.66 389.348 480.109 373.506C467.466 346.982 463.511 319.407 458.083 290.879C454.608 286.944 452.398 285.736 449.101 280.893L211.049 279.511L121.566 278.849C98.7878 278.765 74.0661 279.26 51.4844 277.794C55.5532 276.755 74.6166 276.728 79.7102 276.639L137.254 275.639C192.144 274.698 249.695 272.672 304.331 273.143L393.344 274.708C409.299 275.043 425.675 275.632 441.621 275.387C453.891 275.197 466.943 273.311 479.038 272.362C476.522 272.123 475.037 272.042 473.677 269.836C473.961 263.183 476.852 255.264 478.042 248.457C486.114 202.272 504.391 169.739 535.34 135.076C529.57 135.314 523.458 135.349 517.657 135.475C516.347 136.697 505.7 151.51 504.131 153.757C479.442 189.112 467.602 223.896 460.902 266.139C457.614 268.369 448.918 272.357 445.167 270.25C446.72 268.457 456.835 267.375 457.265 265.857C460.087 255.924 464.64 229.793 467.413 221.287C475.96 195.07 487.537 173.117 502.923 150.594C504.47 148.329 506.843 143.098 507.242 140.563C507.964 135.983 508.474 117.439 507.569 113.732L507.475 113.364C506.515 109.453 500.889 106.492 499.828 102.824C503.319 100.103 515.636 109.591 520.046 110.648C542.851 116.112 558.886 92.7922 576.824 87.3089C575.09 89.5445 562.279 96.99 558.94 99.4102C549.164 106.498 542.464 111.167 534.223 119.982C535.182 124.495 535.91 128.18 537.459 132.566C544.921 127.048 551.922 120.354 559.557 114.489C587.24 93.2178 615.469 82.1463 649.407 75.1792C663.498 72.286 678.785 74.9059 690.457 71.1662C690.241 54.0644 694.921 48.8358 687.84 33.2891ZM692.838 375.214C700.527 369.544 705.078 357.817 711.942 350.033C720.47 340.351 731.149 338.562 740.44 330.323C743.619 327.507 745.431 321.523 747.961 317.928C751.301 313.187 755.974 304.378 759.471 300.211C767.417 290.745 784.242 278.842 796.212 276.549C779.434 271.669 773.233 267.838 760.769 255.293C756.651 251.145 750.551 239.87 745.979 238.569L746.534 236.302C746.622 235.977 746.534 234.951 746.52 234.55C744.66 231.916 739.764 227.875 736.944 226.292C731.297 223.124 721.174 213.708 714.79 214.334L714.255 213.518L715.648 212.181C714.607 209.861 711.057 207.946 709.014 206.144C702.481 200.37 699.58 191.851 695.083 184.702C689.199 189.072 687.191 199.602 680.645 206.388C670.697 216.709 659.306 221.042 648.151 229.495C644.46 232.292 643.236 237.669 640.514 241.557C625.778 262.608 618.669 267.96 596.158 276.698C614.775 285.339 631.091 300.635 641.684 318.113C648.443 329.264 650.488 333.201 663.292 339.293C677.899 346.244 686.907 358.929 692.385 373.95L692.838 375.214ZM663.061 247.606C646.132 269.717 650.967 296.717 672.843 313.244C673.548 313.777 674.257 314.304 674.969 314.828C673.672 316.166 672.644 314.032 671.965 316.319C673.916 320.115 677.554 320.768 681.605 322.199L680.564 323.113C670.292 321.834 674.945 319.876 669.259 315.695C653.812 304.339 652.134 294.064 648.774 276.086C650.856 270.73 651.336 265.01 653.087 259.612C654.867 254.131 658.843 253.138 657.19 247.12L657.819 246.198L659.405 246.576C660.987 246.12 667.592 239.857 669.423 238.293C670.361 239.094 670.572 239.174 671.046 240.274L671.268 240.508C672.206 241.486 672.499 241.713 673.62 242.455C673.906 244.439 674.075 243.745 673.222 245.244C669.816 246.194 666.515 246.873 663.061 247.606ZM701.995 480.334C719.037 479.068 733.786 477.497 750.273 473.026C793.812 458.409 808.318 451.199 843.382 420.008C839.304 419.285 834.726 418.237 830.648 417.552C824.954 416.599 804.72 415.98 801.494 412.076C801.535 409.473 806.783 406.498 808.987 404.975C816.9 406.517 826.022 409.628 833.536 409.446C831.608 403.963 829.593 398.622 828.315 392.94C827.679 390.132 828.552 385.261 826.388 383.997C820.937 387.935 815.026 396.884 809.92 401.478C799.283 411.046 783.492 418.766 771.015 425.883C765.848 428.833 760.742 430.402 755.487 432.54C745.837 436.468 727.781 437.609 720.524 443.769C709.17 453.405 708 467.055 701.995 480.334ZM540.175 415.417C541.81 415.045 544.988 414.561 546.042 413.518C546.695 409.716 554.484 384.292 556.331 380.643C557.29 380.317 558.168 380.02 559.259 380.786C563.683 383.894 567.634 393.511 565.876 398.768C565.814 398.953 564.021 401.277 563.778 401.592C566.473 402.894 571.064 401.336 572.055 402.673C570.77 403.106 569.573 403.519 568.259 403.873C562.097 405.47 558.195 402.309 555.999 408.763C558.544 413.145 577.82 404.631 582.889 405.695C584.6 406.054 586.375 406.554 587.986 407.042L587.885 406.286C566.065 391.73 542.609 356.862 534.574 331.903C532.472 325.373 529.747 311.296 526.758 306.87C519.519 296.152 499.648 285.118 486.796 284.518C489.07 325.215 500.186 359.896 523.211 393.588C528.541 401.387 533.475 408.648 540.175 415.417ZM825.671 168.19C829.471 162.486 829.248 161.832 829.153 154.857C821.417 156.465 818.671 157.605 812.078 162.068C816.426 167.157 824.082 172.522 827.104 176.283C837.201 188.831 848.278 208.373 853.912 223.433C862.521 246.465 855.744 250.216 879.184 263.287L884.668 266.062C893.805 262.13 895.719 261.961 905.45 261.707C898.62 263.498 893.237 264.825 886.853 267.848C892.439 269.433 897.673 271.239 903.503 271.301C903.739 264.129 902.481 256.919 901.386 249.831C894.975 210.573 877.033 174.112 849.841 145.094C847.893 143.025 845.763 141.234 843.233 139.902C839.933 146.472 838.141 151.602 836.829 158.892C835.822 164.452 839.453 171.036 834.936 174.467C831.013 174.95 827.963 170.879 825.671 168.19ZM844.911 409.23L841.205 409.15L840.508 410.125C841.827 412.618 844.302 413.622 846.973 414.525C849.861 414.333 852.005 412.081 853.79 409.975C873.267 386.987 890.167 360.285 897.071 330.626C900.5 315.878 904.334 298.076 903.361 282.901L902.759 282.292C887.928 286.1 872.239 292.766 862.886 306.121C860.079 310.13 857.658 323.093 855.805 328.634C852.255 339.247 848.332 347.796 843.267 357.783C841.441 361.397 832.447 375.446 832.291 377.272C834.313 380.614 835.964 380.898 837.066 384.983C839.284 393.178 841.8 401.325 844.911 409.23ZM546.074 421.095C553.064 426.263 559.026 432.209 566.31 437.506C589.531 454.388 616.327 465.149 643.615 473.512C650.126 475.508 656.296 475.904 662.489 477.266C668.805 478.242 685.412 482.086 689.855 478.848C690.234 475.971 688.699 475.776 687.691 473.386C685.142 467.329 679.549 449.997 672.568 447.904C671.083 450.187 673.736 455.424 667.553 453.561L667.004 452.381C668.193 449.91 669.808 448.486 671.709 446.549C670.651 445.237 668.786 442.777 667.673 441.666C661.359 439.805 655.387 439.021 649.622 437.361C634.162 432.911 618.202 427.4 604.843 418.288C602.698 416.825 592.278 410.277 590.387 409.882C589.703 410.711 588.019 412.634 587.089 412.956C574.169 417.439 558.913 416.292 546.074 421.095ZM548.633 140.553C554.7 139.765 563.966 143.007 570.894 142.917C574.344 143.203 577.796 143.454 581.251 143.671C582.865 146.721 584.512 149.753 586.193 152.767C614.124 134.801 635.198 123.059 668.08 116.835C680.706 114.445 682.45 90.0113 690.39 81.2884C686.177 81.1896 681.348 80.9298 677.23 81.5306C645.319 85.0978 613.897 92.2591 586.591 109.944C574.35 117.873 555.676 127.96 548.633 140.553ZM703.922 89.7542C706.16 89.1852 709.819 88.0458 711.983 88.2467L711.868 89.1169C709.508 89.761 706.404 90.2455 704.943 92.0669C703.381 96.494 715.074 111.143 717.955 115.757C735.558 121.93 752.782 123.281 770.21 132.64C781.044 138.461 791.79 146.79 801.913 152.982C802.962 153.623 818.834 154.01 823.013 154.786C825.698 153.78 828.579 152.994 830.499 150.92L830.817 149.598C828.119 147.686 814.194 149.31 811.503 150.234C808.974 152.173 809.819 152.06 807.067 152.326C804.084 149.933 804.618 146.391 806.492 143.403C807.432 141.901 809.264 142.08 810.806 142.009C816.5 141.74 837.945 142.31 840.826 137.429C839.872 134.139 815.513 118.124 811.185 115.46C778.17 95.1259 740.549 81.8635 701.379 82.4691C702.515 85.1343 703.34 86.8678 703.922 89.7542ZM559.409 179.421C557.499 177.024 557.151 175.339 556.267 172.461C555.199 171.795 554.754 171.626 553.582 171.154C552.394 167.552 554.068 143.965 545.042 143.41C541.885 143.708 539.119 148.215 537.445 150.107C515.003 175.478 498.554 203.353 492.096 236.984C490.836 243.545 489.25 253.681 490.185 260.619C490.519 261.395 490.887 261.957 490.872 262.741C489.766 265.308 489.097 265.589 489.701 267.83C492.562 268.815 497.397 267.223 499.754 265.432L500.751 264.296C506.218 266.602 512.158 261.591 516.516 259.065C530.213 251.228 531.149 238.794 535.235 225.058C540.512 207.318 549.49 194.622 559.409 179.421ZM710.637 430.103C714.431 430.344 721.18 430.948 724.819 430.45C749.8 427.036 778.095 412.342 797.18 396.456C791.181 393.499 781.03 390.576 774.294 388.318C765.591 385.512 758.909 383.143 749.814 381.892C746.209 391.215 727.794 430.852 717.292 428.891C716.893 423.65 739.771 386.359 744.782 380.04C736.139 377.589 719.064 374.711 710.171 375.577C702.657 379.423 707.114 379.155 704.645 384.583C698.18 398.788 702.062 416.695 710.36 429.67L710.637 430.103ZM706.695 186.971C715.723 200.981 722.465 209.565 738.013 216.964C740.616 218.202 748.312 221.676 749.658 223.637C759.166 237.458 760.133 247.702 775.005 258.661C779.495 262.212 786.535 265.441 792.114 266.664C793.994 258.671 797.349 241.249 800.432 234.774C793.014 228.613 785.007 223.873 777.71 217.501C766.078 207.342 757.719 194.633 746.926 183.843C745.79 182.713 744.424 182.773 742.976 182.803C729.498 185.684 720.017 185.437 706.695 186.971ZM826.131 305.36C836.809 299.427 844.14 297.464 853.966 292.655C842.395 285.953 826.712 278.394 812.686 281.761C807.709 282.05 797.802 284.049 794.244 287.412L794.231 288.237C796.07 288.577 797.991 288.498 798.769 289.964C801.738 295.512 802.955 312.871 807.242 316.15C811.997 314.243 820.376 308.272 826.131 305.36ZM896.037 276.515C890.91 275.758 870.379 272.247 866.179 270.506L866.017 269.757L868.472 269.101L868.418 268.47C866.051 266.677 862.318 263.662 859.423 263.367C856.684 273.021 852.87 272.588 844.113 276.504C850.206 279.01 859.687 285.075 863.501 290.576C868.316 288.203 871.806 286.257 876.411 283.522C882.964 280.304 889.01 278.484 896.037 276.515ZM798.938 269.322C813.254 273.628 827.422 274.645 841.117 268.203C845.506 266.079 849.3 264.007 853.54 261.645C843.639 257.961 834.029 252.573 824.521 248.054C819.226 245.536 810.137 239.262 805.268 238.486C803.929 249.1 800.703 258.849 798.938 269.322ZM589.791 269.414C588.626 260.302 585.571 248.212 585.139 240.17C583.635 239.172 583.034 239.318 581.284 239.399C563.747 248.742 554.737 253.276 536.505 261.642C540.873 263.599 546.785 266.035 550.93 268.175C559.926 271.977 581.151 274.167 589.791 269.414ZM570.067 281.76C557.829 282.878 546.332 285.245 537.256 293.907C548.859 298.364 560.144 303.608 571.033 309.602C575.361 312.132 581.218 315.645 585.833 317.409C586.623 312.986 590.077 290.619 591.586 288.701C593.073 288.431 593.843 288.312 595.384 288.23C593.942 281.38 575.353 280.763 570.067 281.76ZM495.178 277.22C502.448 278.877 506.416 279.758 512.95 283.855C514.073 284.56 518.683 287.853 519.502 288.161C522.3 289.636 525.609 291.503 528.489 292.687C532.435 282.194 537.605 280.617 547.47 276.853C542.399 274.737 531.487 271.583 528.481 267.863L527.819 264.476C513.119 274.491 510.389 271.977 495.178 277.22ZM680.766 440.453C683.458 443.222 686.968 447.038 689.774 449.535C689.977 456.074 690.883 460.313 692.919 466.493C694.535 464.486 696.415 462.247 697.957 460.218C699.661 457.224 701.541 454.056 703.083 450.999C697.93 448.189 692.662 444.191 687.198 443.594C688.706 442.387 689.511 442.254 691.35 441.721L694.846 442.601C696.794 435.662 696.226 434.086 699.141 426.789C697.085 424.234 695.827 422.768 695.428 419.333C692.121 429.139 690.701 435.529 680.766 440.453ZM524.479 433.339L517.351 433.94C516.497 437.109 514.061 443.615 514.526 446.143L515.521 446.865L519.023 446.275C522.881 445.032 524.834 444.099 528.101 441.551C528.275 438.91 528.938 435.704 527.794 433.704C526.748 433.528 525.512 433.246 524.479 433.339ZM590.507 268.866C602.167 264.813 603.522 265.158 614.003 258.345C624.407 251.403 634.515 235.087 639.266 223.659C646.449 218.624 655.728 215.687 662.916 210.394C671.781 203.865 676.117 194.442 683.708 186.833C675.342 186.227 666.905 185.838 658.523 185.444C653.678 185.217 646.422 183.987 641.913 184.026C637.304 188.994 633.562 194.573 629.293 199.787C618.592 212.855 603.725 224.463 590.626 234.99C591.903 242.225 596.477 258.178 595.348 264.124L594.513 264.859C592.988 263.497 592.788 263.176 591.709 261.448C590.62 263.66 590.955 266.417 590.507 268.866ZM703.056 437.665C700.507 440.266 700.662 439.397 699.959 442.449L700.534 443.835C702.995 444.768 703.327 444.103 706.235 443.184C708.034 443.142 709.488 441.586 711.185 440.339C709.17 439.569 705.011 437.788 703.056 437.665ZM724.548 369.614C732.69 370.847 738.405 373.205 746.716 373.533C753.242 368.219 761.425 355.067 768.026 347.804C776.716 338.249 792.344 328.717 799.851 319.706C796.767 313.752 793.271 296.608 792.168 288.947C792.128 288.689 791.255 288.206 790.829 288.102C775.972 293.89 762.636 305.874 756.022 320.244C750.943 331.28 751.105 333.825 739.23 340.192C727.99 346.22 717.109 356.046 711.543 367.826C715.892 368.349 720.227 368.945 724.548 369.614ZM696.523 136.898C700.033 128.84 693.027 126.481 686.312 125.528C690.789 130.106 689.842 135.589 694.515 137.756L696.523 136.898ZM567.643 155.077C577.957 156.529 579.422 159.991 586.2 151.625C576.749 151.64 563.794 149.286 558.104 149.487L560.816 158.727C563.689 158.41 564.355 158.275 567.069 159.151C566.004 160.28 562.86 160.287 561.065 160.419C562.229 169.615 561.132 172.491 558.998 181.349C562.969 174.162 564.551 172.738 570.706 167.32L576.084 162.373C572.728 159.765 570.581 158.12 567.643 155.077ZM701.42 111.064C699.844 117.291 697.484 119.76 706.363 121.739L707.959 121.262L710.488 119.326C710.002 115.699 704.537 112.431 701.42 111.064ZM516.864 117.7C517.292 121.219 517.944 125.65 518.124 129.109C521.198 129.173 528.429 129.835 530.475 128.051C529.557 125.306 529.271 124.553 529.136 121.693C526.333 117.532 521.656 117.371 516.864 117.7ZM786.095 215.74C789.842 218.758 796.977 225.239 801.548 225.561C804.747 224.039 815.79 189.04 817.839 183.384C815.405 179.223 804.733 166.629 799.797 167.229C791.979 168.779 781.652 173.32 773.74 175.917C767.444 177.984 760.627 179.235 754.744 181.144C766.531 195.654 771.853 203.044 786.095 215.74ZM697.078 109.82C698.343 108.279 699.147 107.95 699.114 106.196C699.08 104.456 695.712 99.7661 694.583 98.7384C692.175 100.483 691.675 100.867 690.349 103.513C690.2 108.355 693.981 107.157 697.078 109.82ZM580.499 231.445C576.686 217.75 571.325 205.925 567.642 192.936C566.015 192.12 565.458 192.146 563.71 192.005C550.879 211.198 544.223 231.993 536.549 253.494C541.853 252.015 544.854 251.148 549.513 248.066C559.533 243.022 570.983 237.282 580.499 231.445ZM657.555 141.902C660.275 137.815 665.598 127.83 671.936 131.885C671.182 135.549 653.139 165.772 649.803 171.016C648.908 172.422 645.83 175.601 644.494 176.899C652.793 178.098 679.204 182.489 684.107 178.156C693.156 170.16 688.408 141.99 679.894 133.615C676.479 130.248 674.683 127.595 670.666 128.821C647.612 131.476 625.483 139.431 606.012 152.065C603.743 153.568 596.351 158.404 595.493 160.92C597.75 163.52 636.058 177.501 638.865 174.041C645.912 165.353 651.217 151.611 657.555 141.902ZM714.33 129.766C703.597 135.784 696.084 165.2 702.245 176.483C705.484 182.42 722.573 179.403 728.18 178.811C733.657 178.26 738.074 177.75 743.254 175.733C738.209 169.775 718.759 137.23 717.758 130.362C716.386 130.02 715.777 129.824 714.33 129.766ZM821.992 193.377C819.51 202.593 807.77 225.264 811.76 231.624C814.817 236.492 838.54 247.476 845.134 250.993C848.089 252.384 851.322 254 854.331 255.179C853.141 252.013 852.16 249.085 851.22 245.873C847.081 231.776 837.39 203.84 827.091 193.808L821.992 193.377ZM852.999 299.637C848.617 301.098 811.016 321.086 807.817 323.643C811.516 332.786 817.522 349.876 821.843 357.66C823.121 360.777 823.845 365.637 824.636 366.771C836.031 362.132 850.395 312.736 854.277 300.746L853.776 299.85L852.999 299.637ZM590.545 319.34C613.75 338.579 625.962 349.32 643.202 375.121C653.556 373.895 659.226 371.696 670.874 370.774C674.286 370.671 677.432 369.767 680.746 368.964C674.098 355.904 663.857 345.588 649.985 340.523C635.554 335.256 639.735 334.375 635.274 322.648C631.302 312.21 609.358 289.815 597.902 288.581C597.454 289.157 595.996 291.14 595.971 291.736C595.55 301.612 593.344 309.893 590.545 319.34ZM570.009 359.151C571.07 354.18 580.282 329.257 582.723 324.136C574.944 319.235 542.671 301.764 535.359 300.432C541.457 314.12 551.834 357.862 564.232 365.834C568.583 366.23 567.031 365.616 570.473 368.246L571.038 367.763C569.174 362.629 568.756 363.763 570.009 359.151ZM724.832 130.545C728.437 134.785 730.445 139.81 733.103 144.677C738.134 153.895 744.309 166.774 750.781 174.898C758.138 173.01 780.55 166.642 786.812 163.799C789.436 162.901 792.648 161.704 795.259 160.933C782.058 148.793 742.963 130.732 724.832 130.545ZM588.228 167.037C581.455 171.416 576.661 177.524 571.734 183.859C575.527 194.269 582.954 213.981 586.135 225.681C586.703 225.947 587.202 226.18 587.63 226.381C593.294 226.105 600.892 218.443 605.444 214.552C610.779 209.266 615.955 204.216 620.929 198.586C625.463 193.455 630.121 186.675 634.806 181.94C628.082 179.606 621.898 178.515 615.373 176.492C606.786 173.831 596.564 170.374 588.228 167.037ZM799.168 328.695C788.05 336.996 777.831 346.44 768.682 356.871C765.009 361.122 757.848 371.653 754.784 373.949C756.083 375.884 780.043 383.173 783.843 384.171C811.253 393.881 801.224 393.749 819.929 373.332C815.818 367.188 806.992 331.647 801.345 328.796L799.168 328.695ZM587.405 325.894C584.762 337.186 576.551 363.58 571.537 374.023C576.232 381.044 581.621 387.575 587.621 393.519C596.799 390.489 602.54 386.347 612.892 383.754C620.953 381.354 629.553 378.973 637.302 375.825C623.804 360.676 614.476 345.325 597.314 333.051C594.018 330.693 591.208 327.644 587.405 325.894ZM667.723 377.126C660.798 378.072 653.645 378.954 646.781 380.152C650.386 384.827 673.129 422.791 674.499 427.424C673.972 427.692 671.033 427.825 668.456 428.816C662.448 422.794 644.963 392.591 640.648 383.385C628.794 383.712 618.443 389.935 607.418 393.061C603.998 394.068 598.109 395.547 595.281 397.317L595.048 398.372C597.088 401.081 601.722 403.756 604.821 405.739C623.447 417.654 644.142 426.049 665.854 430.231C672.245 431.463 675.495 430.417 681.01 427.711C692.189 406.435 691.1 400.927 684.953 376.914C679.881 376.637 672.774 376.424 667.723 377.126Z" fill="white"/>
<path d="M698.391 326.785C705.809 327.76 707.825 333.674 716.346 337.704C710.32 338.055 702.333 331.005 698.391 326.785Z" fill="white"/>
<path d="M697.415 196.922C698.382 196.89 699.302 197.071 700.262 197.216L699.992 197.958L696.387 199.542C694.798 199.357 694.507 199.253 693.02 198.642C693.824 197.527 695.813 197.34 697.415 196.922Z" fill="white"/>
<path d="M513.177 297.047L513.585 298.024C512.346 300.332 509.687 302.081 507.568 303.731C506.7 302.739 506.946 303.203 506.762 301.831C507.988 299.942 511.155 298.297 513.177 297.047Z" fill="white"/>
<path d="M721.412 102.066L722.128 103.225L721.574 104.889C719.532 106.987 718.389 107.388 715.792 108.577C715.041 107.77 715.291 108.258 715.23 106.974C716.745 104.704 719.085 103.511 721.412 102.066Z" fill="white"/>
<path d="M609.517 363.992C610.272 369.974 609.18 374.32 602.839 376.399C599.456 377.477 595.78 377.133 592.656 375.446C589.94 373.945 587.964 371.386 587.199 368.377C586.544 365.825 587.607 363.751 588.9 361.629C589.484 362.574 589.46 366.16 589.799 367.629C593.019 381.569 606.736 376.08 608.802 364.11L609.517 363.992Z" fill="white"/>
<path d="M608.803 364.109C604.197 351.586 595.613 359.161 593.934 355.266C599.046 351.08 609.275 357.059 609.518 363.991L608.803 364.109Z" fill="white"/>
<path d="M791.194 352.543C793.514 352.665 797.132 352.796 798.444 354.865C795.049 356.078 792.905 355.477 789.159 355.867C785.277 358.865 786.217 368.18 787.576 372.391C790.281 373.536 789.22 373.436 791.999 373.104C796.476 370.389 798.478 362.685 800.304 357.668C803.827 365.486 796.78 371.282 796.239 373.685L798.512 373.994C795.583 379.381 787.265 374.853 785.034 369.747C783.458 366.1 783.431 361.968 784.959 358.3C786.366 354.899 787.955 353.939 791.194 352.543Z" fill="white"/>
<path d="M785.249 183.497C795.602 182.906 800.458 183.706 797.361 194.965C799.004 198.649 801.662 202.115 799.221 205.497C795.636 205.912 791.105 205.709 787.413 205.644C785.31 200.032 782.003 192.701 782.638 186.658C782.828 184.824 783.727 184.625 785.249 183.497Z" fill="white"/>
<path d="M595.687 177.227C603.375 177.605 608.493 189.718 608.79 196.288L606.602 195.879C602.181 199.989 607.393 205.95 595.109 205.764C589.096 199.274 587.138 193.009 592.183 184.924C586.636 184.386 583.813 183.962 578.406 182.677C585.724 180.338 587.24 180.614 595.687 177.227Z" fill="white"/>
<path d="M517.859 275.614C521.776 274.886 527.585 276.297 530.796 278.703C528.229 278.943 520.27 276.774 517.859 275.614Z" fill="white"/>
<path d="M861.742 268.969L863.203 269.343L863.561 270.264C858.496 276.002 863.805 279.425 860.505 283.477C859.112 282.358 859.172 280.339 858.767 278.208C856.65 277.732 856.718 278.097 855.467 276.77L853.783 276.861L853.641 276.55C856.359 276.028 857.834 275.8 859.565 273.717C859.058 272.743 858.692 272.168 858.077 271.259C859.544 269.451 859.315 269.93 861.742 268.969Z" fill="white"/>
<path d="M669.422 238.297C670.36 239.097 670.571 239.178 671.046 240.277L671.267 240.511C672.205 241.489 672.498 241.716 673.619 242.459C673.905 244.443 674.075 243.748 673.221 245.247C669.816 246.198 666.514 246.876 663.06 247.61C646.131 269.721 650.966 296.721 672.842 313.248C673.547 313.78 674.256 314.308 674.968 314.832C673.672 316.17 672.643 314.035 671.965 316.322C673.915 320.118 677.553 320.772 681.604 322.202L680.563 323.117C670.292 321.837 674.944 319.879 669.258 315.698C653.811 304.342 652.133 294.068 648.773 276.089C650.855 270.734 651.335 265.014 653.087 259.616C654.866 254.134 658.842 253.142 657.19 247.123L657.818 246.201L659.404 246.579C660.986 246.123 667.591 239.861 669.422 238.297Z" fill="white"/>
<path d="M669.422 238.296C678.148 232.489 684.938 230.286 695.495 230.428C712.3 230.655 719.435 235.549 730.519 246.668C735.232 241.32 740.23 239.569 746.533 236.305L745.978 238.572C742.556 240.937 735.314 242.764 733.853 247.711C737.403 258.065 742.198 267.307 741.278 278.664C740.676 286.075 736.822 300.748 731.202 305.607L729.937 305.928L729.132 305.073C730.329 302.321 732.608 298.676 734.238 296.005C747.074 274.93 734.245 245.331 712.604 235.931C698.47 229.792 684.012 232.288 671.046 240.276C670.571 239.177 670.36 239.096 669.422 238.296Z" fill="white"/>
<path d="M675.598 213.691C686.191 217.673 688.443 223.096 700.319 220.993L700.67 221.947C698.155 222.79 697.269 223.584 695.118 225.176C685.535 220.487 683.601 220.869 675.598 213.691Z" fill="white"/>
<path d="M681.604 322.199C684.424 322.681 689.239 322.981 690.95 324.527C690.876 328.587 686.615 331.214 683.227 332.753L682.321 332.41C684.35 329.618 686.798 328.981 687.521 326.33C686.216 323.414 683.538 323.585 680.562 323.114L681.604 322.199Z" fill="white"/>
<path d="M714.254 213.52L714.789 214.336C710.217 217.518 706.112 220.485 700.668 221.949L700.316 220.995C705.672 218.787 709.297 215.723 714.254 213.52Z" fill="white"/>
<path d="M490.184 260.621C493.946 260.995 497.567 262.255 500.75 264.299L499.753 265.435C496.714 264.322 494.257 264.393 490.871 262.743C490.886 261.959 490.518 261.397 490.184 260.621Z" fill="white"/>
<path d="M841.285 104.559C858.537 115.021 873.246 103.959 889.071 100.25C860.025 137.132 897.564 154.199 908.811 184.053L907.1 185.711C901.162 176.802 897.051 167.075 889.97 158.062C884.81 151.502 875.586 141.607 872.225 134.67C865.908 133.688 858.909 133.297 852.491 132.801C860.221 125.482 852.153 128.916 857.637 119.86C851.882 113.089 848.21 111.273 840.758 106.358L841.285 104.559ZM864.285 117.827C863.724 120.898 863.203 123.976 862.716 127.059L863.744 128.139C866.916 128.506 866.909 128.966 869.662 127.806C872.651 124.398 873.861 120.9 872.827 116.318L872.279 115.872C869.756 116.452 866.713 117.069 864.285 117.827Z" fill="white"/>
<path d="M897.912 391.418L898.805 394.742C898.054 396.292 890.48 406.421 888.728 409.042C874.27 430.717 880.863 438.799 891.237 459.362C888.451 458.244 883.21 455.292 880.133 453.825C869.38 448.698 863.564 451.159 852.555 450.868C853.867 449.246 854.489 449.42 854.638 447.459C854.949 443.304 853.042 434.618 855.03 431.451C858.026 432.657 855.476 433.006 857.431 434.577C859.033 433.336 861.082 431.675 862.645 430.499C863.314 429.995 866.445 430.293 868.278 429.278C867.358 428.981 867.047 428.928 866.229 428.357C866.932 428.102 867.635 427.798 868.346 427.567C874.689 425.513 892.157 398.676 897.912 391.418ZM866.215 443.494C868.799 444.315 868.136 444.522 870.368 443.8C872.281 441.896 873.614 438.755 873.046 436.054L872.329 435.429C869.543 435.813 866.52 436.013 864.071 437.327C862.509 440.251 864.092 441.066 866.215 443.494Z" fill="white"/>
<path d="M908.813 184.051C911.551 189.171 919.058 203.782 920.37 208.791C923.548 220.939 923.034 226.64 927.998 238.817C926.03 247.385 927.173 259.552 931.65 266.951L930.866 267.309C924.996 263.233 924.286 246.441 926.49 239.964C920.938 231.572 918.943 217.442 918.179 207.683C910.774 198.886 913.756 195.686 907.102 185.708L908.813 184.051Z" fill="white"/>
<path d="M897.91 391.416C908.054 372.323 915.77 364.365 918.962 342.059L919.666 342.151C923.575 358.264 910.333 372.324 903.746 386.301C902.13 389.718 899.723 390.432 898.803 394.74L897.91 391.416Z" fill="white"/>
<path d="M925.299 309.652C927.557 314.966 923.067 332.723 920.585 337.97C919.192 335.197 925.454 317.153 925.299 309.652Z" fill="white"/>
<path d="M1325.54 276.663C1331.15 276.532 1333.55 276.546 1339.07 277.366C1337.7 278.286 1328.23 278.075 1326.09 278.043L1325.54 276.663Z" fill="white"/>
<path d="M840.757 106.358C839.04 105.238 836.057 103.614 835.496 101.799L836.341 101.43C838.756 102.38 839.27 102.878 841.285 104.558L840.757 106.358Z" fill="white"/>
</g>
<defs>
<filter id="filter0_d_304_2000" x="-4" y="0" width="1393" height="552" filterUnits="userSpaceOnUse" color-interpolation-filters="sRGB">
<feFlood flood-opacity="0" result="BackgroundImageFix"/>
<feColorMatrix in="SourceAlpha" type="matrix" values="0 0 0 0 0 0 0 0 0 0 0 0 0 0 0 0 0 0 127 0" result="hardAlpha"/>
<feOffset dy="4"/>
<feGaussianBlur stdDeviation="2"/>
<feComposite in2="hardAlpha" operator="out"/>
<feColorMatrix type="matrix" values="0 0 0 0 0 0 0 0 0 0 0 0 0 0 0 0 0 0 0.25 0"/>
<feBlend mode="normal" in2="BackgroundImageFix" result="effect1_dropShadow_304_2000"/>
<feBlend mode="normal" in="SourceGraphic" in2="effect1_dropShadow_304_2000" result="shape"/>
</filter>
</defs>
</svg>
